<svg width="20" height="20" viewBox="0 0 20 20" fill="none" xmlns="http://www.w3.org/2000/svg">
<g clip-path="url(#clip0)">
<path fill-rule="evenodd" clip-rule="evenodd" d="M10.1636 4.58491C10.2916 4.5739 10.4196 4.6179 10.5036 4.70956C10.5916 4.80122 10.6196 4.92222 10.5876 5.03956L10.1316 6.69682C11.863 7.23797 13.5277 8.05971 14.772 8.67389L14.8074 8.6914L15.1674 8.87106C15.2254 8.83439 15.2834 8.79864 15.3414 8.76289C15.3994 8.72714 15.4574 8.69139 15.5154 8.65473C16.7193 7.90677 17.9633 7.13679 19.6912 7.51445C19.8192 7.54379 19.9232 7.62444 19.9712 7.73443C20.0192 7.84442 20.0072 7.96909 19.9352 8.06809L18.4593 10.1983L19.9352 12.3286C20.0072 12.4276 20.0192 12.5522 19.9712 12.6622C19.9232 12.7722 19.8192 12.8529 19.6912 12.8822C17.9633 13.2599 16.7193 12.4899 15.5154 11.7419C15.4576 11.7054 15.3998 11.6697 15.3419 11.6341C15.2838 11.5982 15.2256 11.5624 15.1674 11.5256L14.8074 11.7053L14.7714 11.7231C13.5272 12.3372 11.8628 13.1588 10.1316 13.6998L10.5876 15.3571C10.6196 15.4744 10.5916 15.5954 10.5036 15.6871C10.4276 15.7678 10.3156 15.8154 10.2036 15.8154C10.1876 15.8154 10.1756 15.8154 10.1636 15.8118C8.50371 15.6614 7.06378 14.6091 6.64778 14.2755C5.67182 14.2572 4.81986 14.0812 4.0799 13.8135C4.95586 12.7795 5.43184 11.5256 5.43184 10.1947C5.43184 8.86739 4.95586 7.61345 4.0799 6.58316C4.81986 6.31549 5.67583 6.13584 6.65178 6.12118C7.25576 5.55652 8.8397 4.70589 10.1636 4.58491ZM0.035997 10.3524C-0.011999 10.2534 -0.011999 10.1434 0.035997 10.0444C0.0932698 9.93148 1.07772 8.00941 3.33742 6.89791C4.17666 7.82431 4.63348 8.97681 4.63348 10.1955C4.63348 11.417 4.17681 12.5713 3.33798 13.4982C1.07826 12.3866 0.0932943 10.4653 0.035997 10.3524ZM2.85191 9.93054C2.95582 9.93054 3.05972 9.89044 3.13159 9.8242C3.20776 9.75473 3.2519 9.66307 3.2519 9.56389C3.2519 9.46865 3.20776 9.3734 3.13159 9.30358C2.98394 9.16788 2.71989 9.16788 2.56794 9.30358C2.49177 9.3734 2.45193 9.46865 2.45193 9.56389C2.45193 9.66307 2.49177 9.75473 2.56794 9.8242C2.64372 9.89044 2.74762 9.93054 2.85191 9.93054Z" fill="black"/>
</g>
<defs>
<clipPath id="clip0">
<rect width="20" height="20" fill="white"/>
</clipPath>
</defs>
</svg>
