<svg width="20" height="20" viewBox="0 0 20 20" fill="none" xmlns="http://www.w3.org/2000/svg">
<path d="M15.6842 6.37973L17.8253 2.653C17.9768 2.38425 17.8821 2.04383 17.5789 1.90049C17.2947 1.75715 16.9347 1.84674 16.7832 2.13341L12.9937 8.72686C12.6526 8.74477 12.2737 8.76269 11.8947 8.78061L15.4 2.653C15.5516 2.38425 15.4568 2.04383 15.1537 1.90049C14.8695 1.75715 14.5095 1.84674 14.3579 2.13341L10.5305 8.81644C10.36 8.81644 10.1705 8.81644 9.98105 8.81644C5.79368 8.81644 3.21684 8.33268 2.38316 7.97434C3.21684 7.63392 5.81263 7.13224 9.98105 7.13224C10.1326 7.13224 10.2653 7.13224 10.4168 7.13224L11.0611 6.02139C10.6442 6.02139 10.2653 6.00348 10 6.00348C7.89684 6.00348 1 6.14681 1 7.95643C1 8.02809 1.01895 8.08184 1.03789 8.1356L2.40211 11.8265C2.87579 13.0807 3.78526 14.1915 5.03579 15.0157C5.28211 15.177 5.56632 15.3024 5.86947 15.4099V16.4849C5.86947 16.8432 6.15368 17.1657 6.53263 17.2195C7.48 17.3449 8.67368 17.4166 10 17.4166C11.3074 17.4166 12.52 17.3449 13.4484 17.2195C13.8274 17.1657 14.1116 16.8612 14.1116 16.4849V15.4099C14.4147 15.3024 14.6989 15.177 14.9453 15.0157C16.2147 14.1736 17.1242 13.0807 17.5979 11.8265L18.9621 8.17143C18.9811 8.11768 19 8.04601 19 7.99226C18.9811 7.13225 17.4842 6.64849 15.6842 6.37973ZM15.0779 7.43683C16.3284 7.59809 17.1621 7.81309 17.5789 7.97434C17.1053 8.17143 16.0253 8.42227 14.4147 8.60144L15.0779 7.43683Z" fill="black"/>
</svg>
